<svg width="95" height="95" viewBox="0 0 95 95" fill="none" xmlns="http://www.w3.org/2000/svg">
<g clip-path="url(#clip0)">
<path d="M39.437 20.823C40.7316 20.823 41.7811 19.7603 41.7811 18.4495V8.28089C41.6572 5.13185 37.2156 5.13422 37.0929 8.28089V18.4497C37.0929 19.7605 38.1424 20.823 39.437 20.823Z" fill="url(#paint0_linear)"/>
<path d="M27.7362 20.1279C28.6514 21.0546 30.1358 21.0549 31.0513 20.1279C31.9667 19.201 31.9667 17.6983 31.0513 16.7714L28.5406 14.2293C27.6253 13.3024 26.141 13.3024 25.2255 14.2293C24.3101 15.1562 24.3101 16.6589 25.2255 17.5858L27.7362 20.1279Z" fill="url(#paint1_linear)"/>
<path d="M51.1378 20.1279L53.6485 17.5858C54.5639 16.6589 54.5639 15.1562 53.6485 14.2293C52.7332 13.3024 51.2489 13.3024 50.3334 14.2293L47.8227 16.7714C46.9072 17.6983 46.9072 19.201 47.8227 20.1279C48.7378 21.0546 50.2223 21.0549 51.1378 20.1279Z" fill="url(#paint2_linear)"/>
<path d="M67.7353 42.1599C69.0739 40.8047 69.0758 38.6088 67.7353 37.2519C66.3965 35.8963 64.2282 35.8948 62.8877 37.2519L54.725 45.5166C53.3885 46.8697 53.3885 49.0716 54.725 50.4248C56.0619 51.7773 58.2368 51.7775 59.5728 50.4248L67.7348 42.1607C67.735 42.1603 67.7351 42.1601 67.7353 42.1599Z" fill="url(#paint3_linear)"/>
<path d="M67.7353 58.6893L73.8575 52.4906H73.8577C75.1963 51.1352 75.1982 48.9395 73.8577 47.5824C72.5192 46.227 70.3506 46.225 69.0102 47.5824L62.8877 53.7813C61.5515 55.1341 61.5518 57.336 62.8881 58.69C64.2265 60.0447 66.3949 60.0463 67.7353 58.6893Z" fill="url(#paint4_linear)"/>
<path d="M79.9796 57.9139C78.653 56.5707 76.4835 56.5449 75.1323 57.9128L71.0512 62.045C69.7106 63.4026 69.7126 65.5982 71.0504 66.9528C72.4053 68.3265 74.5785 68.2904 75.897 66.9539L79.9785 62.8211L79.9798 62.8199C81.3003 61.4846 81.3344 59.2838 79.9796 57.9139Z" fill="url(#paint5_linear)"/>
<path d="M65.359 64.4993C65.359 64.4833 65.3601 64.4675 65.3601 64.4515C63.1766 64.468 61.116 63.6085 59.5726 62.046C57.9777 60.4302 57.1879 58.3041 57.2012 56.1824C55.1032 56.1985 53.0066 55.3952 51.4104 53.7817C48.2456 50.5773 48.2456 45.364 51.41 42.1601L73.8576 19.4332C75.1374 18.1358 75.2444 15.9272 73.8667 14.5323C72.7198 13.3712 70.5437 12.9722 69.0102 14.525L40.0587 43.8383L40.4415 44.2259C46.9815 50.8476 46.9815 61.6218 40.4415 68.2434C39.5261 69.1705 38.0416 69.1702 37.1265 68.2434C36.211 67.3167 36.211 65.8138 37.1265 64.887C41.8383 60.1161 41.8383 52.3533 37.1265 47.5824C37.1265 47.5824 35.0852 45.5145 35.0851 45.5139C34.7807 45.205 34.56 44.8126 34.4597 44.3724L31.7772 32.6038C30.9513 28.9796 27.1622 26.8788 23.6869 28.1701C22.7629 28.5134 22.1493 29.4052 22.1503 30.4017L22.1823 63.9819L16.1533 70.0836C15.2378 71.0105 15.2378 72.5132 16.1533 73.4401L28.7802 86.2249C29.2198 86.67 29.816 86.92 30.4378 86.92H53.5639C55.249 86.92 56.8342 86.2546 58.0274 85.0467L70.6934 72.2229C69.5937 71.8178 68.5856 71.1711 67.7343 70.308C66.2029 68.7575 65.359 66.6942 65.359 64.4993Z" fill="url(#paint6_linear)"/>
</g>
<defs>
<linearGradient id="paint0_linear" x1="39.437" y1="5.92" x2="39.437" y2="20.823" gradientUnits="userSpaceOnUse">
<stop stop-color="#F09819"/>
<stop offset="1" stop-color="#FF5858"/>
</linearGradient>
<linearGradient id="paint1_linear" x1="28.1384" y1="13.5341" x2="28.1384" y2="20.823" gradientUnits="userSpaceOnUse">
<stop stop-color="#F09819"/>
<stop offset="1" stop-color="#FF5858"/>
</linearGradient>
<linearGradient id="paint2_linear" x1="50.7356" y1="13.5341" x2="50.7356" y2="20.823" gradientUnits="userSpaceOnUse">
<stop stop-color="#F09819"/>
<stop offset="1" stop-color="#FF5858"/>
</linearGradient>
<linearGradient id="paint3_linear" x1="61.2313" y1="36.2346" x2="61.2313" y2="51.4393" gradientUnits="userSpaceOnUse">
<stop stop-color="#F09819"/>
<stop offset="1" stop-color="#FF5858"/>
</linearGradient>
<linearGradient id="paint4_linear" x1="68.374" y1="46.5651" x2="68.374" y2="59.7065" gradientUnits="userSpaceOnUse">
<stop stop-color="#F09819"/>
<stop offset="1" stop-color="#FF5858"/>
</linearGradient>
<linearGradient id="paint5_linear" x1="75.5147" y1="56.8966" x2="75.5147" y2="67.9697" gradientUnits="userSpaceOnUse">
<stop stop-color="#F09819"/>
<stop offset="1" stop-color="#FF5858"/>
</linearGradient>
<linearGradient id="paint6_linear" x1="45.1629" y1="13.5053" x2="45.1629" y2="86.92" gradientUnits="userSpaceOnUse">
<stop stop-color="#F09819"/>
<stop offset="1" stop-color="#FF5858"/>
</linearGradient>
<clipPath id="clip0">
<rect width="80" height="81" fill="white" transform="translate(8 7)"/>
</clipPath>
</defs>
</svg>
