<svg width="95" height="95" viewBox="0 0 95 95" fill="none" xmlns="http://www.w3.org/2000/svg">
<g clip-path="url(#clip0)">
<path d="M41.1 84C36.2333 83.6 32.2667 82.8667 29.2 81.8C26.2 80.6667 23.9667 79.7333 22.5 79L26.8 67.5C29.1333 68.6333 31.9 69.6667 35.1 70.6C38.3667 71.5333 41.8 72 45.4 72C49.4667 72 52.2333 71.4667 53.7 70.4C55.2333 69.2667 56 67.7 56 65.7C56 64.4333 55.7 63.3667 55.1 62.5C54.5 61.5667 53.6333 60.7333 52.5 60C51.3667 59.2667 49.9333 58.5667 48.2 57.9C46.4667 57.1667 44.4667 56.4 42.2 55.6C40 54.8 37.8333 53.9333 35.7 53C33.6333 52 31.7333 50.8 30 49.4C28.3333 48 26.9667 46.3 25.9 44.3C24.9 42.2333 24.4 39.7667 24.4 36.9C24.4 34.7 24.7 32.6 25.3 30.6C25.9667 28.5333 26.9667 26.6667 28.3 25C29.6333 23.3333 31.3667 21.9333 33.5 20.8C35.6333 19.6 38.1667 18.7333 41.1 18.2V7.4H53.7V17.8C57.1667 18.1333 60.1333 18.6333 62.6 19.3C65.1333 19.9667 67.1333 20.6333 68.6 21.3L65.5 33.3C63.3 32.3667 60.7333 31.5667 57.8 30.9C54.9333 30.2333 51.9 29.9 48.7 29.9C45.5 29.9 43.2 30.4333 41.8 31.5C40.4 32.5667 39.7 33.9667 39.7 35.7C39.7 36.7667 39.9 37.7 40.3 38.5C40.7667 39.2333 41.4667 39.9 42.4 40.5C43.3333 41.1 44.4667 41.7 45.8 42.3C47.2 42.8333 48.8667 43.4333 50.8 44.1C53.7333 45.1667 56.4333 46.3333 58.9 47.6C61.4333 48.8667 63.6 50.3333 65.4 52C67.2667 53.6 68.7 55.5 69.7 57.7C70.7667 59.9 71.3 62.4667 71.3 65.4C71.3 67.4 71 69.4 70.4 71.4C69.8 73.3333 68.8 75.1333 67.4 76.8C66 78.4667 64.1667 79.9 61.9 81.1C59.7 82.3 56.9667 83.1667 53.7 83.7V95.9H41.1V84Z" fill="url(#paint0_linear)"/>
</g>
<defs>
<linearGradient id="paint0_linear" x1="47.5" y1="-10" x2="47.5" y2="105" gradientUnits="userSpaceOnUse">
<stop stop-color="#F09819"/>
<stop offset="1" stop-color="#FF5858"/>
</linearGradient>
<clipPath id="clip0">
<path d="M0 25C0 11.1929 11.1929 0 25 0H70C83.8071 0 95 11.1929 95 25V70C95 83.8071 83.8071 95 70 95H0V25Z" fill="white"/>
</clipPath>
</defs>
</svg>
