<svg width="95" height="95" viewBox="0 0 95 95" fill="none" xmlns="http://www.w3.org/2000/svg">
<g clip-path="url(#clip0)">
<path d="M45.1 26.8C42.7 26.8 40.4333 27.1 38.3 27.7C36.1667 28.3 33.8 29.2667 31.2 30.6L27 19.3C29.6 17.6333 32.6667 16.3667 36.2 15.5C39.7333 14.5667 43.2 14.1 46.6 14.1C50.8667 14.1 54.3667 14.6667 57.1 15.8C59.9 16.9333 62.1 18.3667 63.7 20.1C65.3 21.8333 66.4 23.7333 67 25.8C67.6667 27.8667 68 29.8333 68 31.7C68 33.5667 67.7 35.3 67.1 36.9C66.5667 38.4333 65.8667 39.8667 65 41.2C64.1333 42.5333 63.1333 43.8 62 45C60.8667 46.2 59.7667 47.3333 58.7 48.4C57.9 49.2 57.0667 50.0667 56.2 51C55.3333 51.8667 54.5333 52.8 53.8 53.8C53.1333 54.8 52.5667 55.8667 52.1 57C51.6333 58.0667 51.4 59.1667 51.4 60.3C51.4 60.5667 51.4 60.9667 51.4 61.5C51.4 62.0333 51.4333 62.5 51.5 62.9H38.3C38.1667 62.2333 38.0667 61.5 38 60.7C38 59.8333 38 59.1 38 58.5C38 56.6333 38.2333 54.9667 38.7 53.5C39.1667 51.9667 39.7667 50.5667 40.5 49.3C41.3 47.9667 42.2 46.7333 43.2 45.6C44.2 44.4667 45.2333 43.3667 46.3 42.3C47.8333 40.7667 49.2333 39.2667 50.5 37.8C51.7667 36.2667 52.4 34.5333 52.4 32.6C52.4 31 51.7667 29.6333 50.5 28.5C49.3 27.3667 47.5 26.8 45.1 26.8ZM54.4 77.1C54.4 80.0333 53.4333 82.3 51.5 83.9C49.6333 85.5 47.5 86.3 45.1 86.3C42.7 86.3 40.5333 85.5 38.6 83.9C36.7333 82.3 35.8 80.0333 35.8 77.1C35.8 74.1667 36.7333 71.9 38.6 70.3C40.5333 68.7 42.7 67.9 45.1 67.9C47.5 67.9 49.6333 68.7 51.5 70.3C53.4333 71.9 54.4 74.1667 54.4 77.1Z" fill="url(#paint0_linear)"/>
</g>
<defs>
<linearGradient id="paint0_linear" x1="48" y1="-10" x2="48" y2="105" gradientUnits="userSpaceOnUse">
<stop stop-color="#F09819"/>
<stop offset="1" stop-color="#FF5858"/>
</linearGradient>
<clipPath id="clip0">
<path d="M0 25C0 11.1929 11.1929 0 25 0H70C83.8071 0 95 11.1929 95 25V70C95 83.8071 83.8071 95 70 95H0V25Z" fill="white"/>
</clipPath>
</defs>
</svg>
