<svg width="200" height="200" viewBox="0 0 200 200" fill="none" xmlns="http://www.w3.org/2000/svg">
<g clip-path="url(#clip0)">
<rect y="101" width="200" height="15" fill="url(#paint0_linear)"/>
<rect width="200" height="15" fill="url(#paint1_linear)"/>
<rect y="121" width="200" height="15" fill="url(#paint2_linear)"/>
<rect x="5" y="143" width="200" height="15" fill="url(#paint3_linear)"/>
<rect y="164" width="200" height="15" fill="url(#paint4_linear)"/>
<rect y="185" width="200" height="15" fill="url(#paint5_linear)"/>
<rect y="20" width="200" height="15" fill="url(#paint6_linear)"/>
<rect y="80" width="200" height="15" fill="url(#paint7_linear)"/>
<rect y="60" width="200" height="15" fill="url(#paint8_linear)"/>
<rect y="40" width="200" height="15" fill="url(#paint9_linear)"/>
</g>
<defs>
<linearGradient id="paint0_linear" x1="100" y1="101" x2="100" y2="116" gradientUnits="userSpaceOnUse">
<stop stop-color="#FF5858"/>
<stop offset="1" stop-color="#F09819"/>
</linearGradient>
<linearGradient id="paint1_linear" x1="100" y1="0" x2="100" y2="15" gradientUnits="userSpaceOnUse">
<stop stop-color="#FF5858"/>
<stop offset="1" stop-color="#F09819"/>
</linearGradient>
<linearGradient id="paint2_linear" x1="100" y1="121" x2="100" y2="136" gradientUnits="userSpaceOnUse">
<stop stop-color="#FF5858"/>
<stop offset="1" stop-color="#F09819"/>
</linearGradient>
<linearGradient id="paint3_linear" x1="105" y1="143" x2="105" y2="158" gradientUnits="userSpaceOnUse">
<stop stop-color="#FF5858"/>
<stop offset="1" stop-color="#F09819"/>
</linearGradient>
<linearGradient id="paint4_linear" x1="100" y1="164" x2="100" y2="179" gradientUnits="userSpaceOnUse">
<stop stop-color="#FF5858"/>
<stop offset="1" stop-color="#F09819"/>
</linearGradient>
<linearGradient id="paint5_linear" x1="100" y1="185" x2="100" y2="200" gradientUnits="userSpaceOnUse">
<stop stop-color="#FF5858"/>
<stop offset="1" stop-color="#F09819"/>
</linearGradient>
<linearGradient id="paint6_linear" x1="100" y1="20" x2="100" y2="35" gradientUnits="userSpaceOnUse">
<stop stop-color="#FF5858"/>
<stop offset="1" stop-color="#F09819"/>
</linearGradient>
<linearGradient id="paint7_linear" x1="100" y1="80" x2="100" y2="95" gradientUnits="userSpaceOnUse">
<stop stop-color="#FF5858"/>
<stop offset="1" stop-color="#F09819"/>
</linearGradient>
<linearGradient id="paint8_linear" x1="100" y1="60" x2="100" y2="75" gradientUnits="userSpaceOnUse">
<stop stop-color="#FF5858"/>
<stop offset="1" stop-color="#F09819"/>
</linearGradient>
<linearGradient id="paint9_linear" x1="100" y1="40" x2="100" y2="55" gradientUnits="userSpaceOnUse">
<stop stop-color="#FF5858"/>
<stop offset="1" stop-color="#F09819"/>
</linearGradient>
<clipPath id="clip0">
<rect width="200" height="200" rx="100" fill="white"/>
</clipPath>
</defs>
</svg>
