<svg width="225" height="464" viewBox="0 0 225 464" fill="none" xmlns="http://www.w3.org/2000/svg">
<path d="M225 464H121L97.0001 416C82.44 386.88 54.6401 390.88 37.7001 349.66C33.1501 347.84 28.8402 345.92 25.0001 344C12.6301 337.82 14.6101 322.07 23.5301 315.25C21.1501 314.08 18.96 312.98 17.0001 312C1.11009 304.05 8.90009 269.81 32.5301 277.2C34.3601 278.05 36.2301 278.88 38.1201 279.69C41.3801 281.07 44.7201 282.37 48.1301 283.5C44.2101 281.89 40.7501 280.48 38.1401 279.43C34.94 278.13 33.0001 277.35 33.0001 277.35C32.8402 277.3 32.68 277.25 32.5301 277.2C23.69 273.08 15.6501 268.6 9.00009 265.27C-5.03991 258.25 -0.599911 232.74 16.93 232.02C2.08017 211.69 18.6201 184 49.0001 184C71.68 184 81.5001 196.86 78.4501 208H165.09C168.96 196.16 175.6 188.7 185 184C201 176 217 192 209 216C201 240 153 384 225 464Z" fill="#F5A971"/>
<path d="M113 224C174.856 224 225 173.856 225 112C225 50.1441 174.856 0 113 0C51.1441 0 1 50.1441 1 112C1 173.856 51.1441 224 113 224Z" fill="#F0CD81"/>
<path d="M78.47 114.56C79.0263 112.751 79.9406 111.073 81.1586 109.625C82.3766 108.176 83.8734 106.988 85.56 106.13C84.8432 108.761 84.7304 111.519 85.23 114.2C86.95 123.87 94.18 127.99 100.43 127.06C106.42 126.17 111.92 120.55 110.85 111.53C110.479 108.896 109.465 106.394 107.897 104.245C106.329 102.096 104.256 100.367 101.86 99.21C105.297 97.3448 109.098 96.2494 113 96C116.902 96.2494 120.703 97.3448 124.14 99.21C121.744 100.367 119.671 102.096 118.103 104.245C116.535 106.394 115.521 108.896 115.15 111.53C114.08 120.55 119.58 126.17 125.57 127.06C126.146 127.149 126.727 127.192 127.31 127.19C133.1 127.19 139.21 122.99 140.77 114.2C141.27 111.519 141.157 108.761 140.44 106.13C142.126 106.986 143.623 108.172 144.841 109.619C146.059 111.066 146.974 112.743 147.53 114.55L147.521 114.569L147.53 114.56L152.875 112.157L152.12 105.95C150.151 103.112 147.523 100.795 144.46 99.1979C141.398 97.6006 137.994 96.7709 134.54 96.78C128.06 90.74 118.39 88 113 88C107.61 88 97.94 90.74 91.46 96.78C88.006 96.7698 84.6013 97.5991 81.5389 99.1965C78.4765 100.794 75.8481 103.112 73.88 105.95L73.125 112.157L78.47 114.56ZM131.25 105.12C132.032 106.221 132.582 107.47 132.866 108.79C133.15 110.111 133.161 111.475 132.9 112.8C132.02 117.69 129.18 119.51 126.75 119.15C124.73 118.85 122.57 116.92 123.1 112.47C123.56 108.57 127.27 106 131.25 105.12ZM94.75 105.12C98.73 106 102.44 108.57 102.9 112.47C103.43 116.92 101.27 118.85 99.25 119.15C96.82 119.51 93.98 117.69 93.1 112.8C92.8387 111.475 92.8503 110.111 93.134 108.79C93.4177 107.47 93.9675 106.221 94.75 105.12Z" fill="#D13913"/>
<path d="M95.4099 204V213.42H87.38V204C86.3101 180.73 82 129.7 64.52 106.4C63.8853 105.551 63.6134 104.485 63.764 103.436C63.9146 102.387 64.4755 101.44 65.3234 100.805C66.1713 100.169 67.2369 99.8952 68.2862 100.044C69.3355 100.193 70.2828 100.753 70.9199 101.6C71.9499 102.97 72.9299 104.43 73.88 105.95C74.99 107.67 77.8201 113.12 78.47 114.56C91.23 142.15 94.5501 183.67 95.4099 204Z" fill="#E34E03"/>
<path d="M161.48 106.4C143.99 129.72 139.69 180.73 138.62 204V213.42H130.59V204C131.45 183.66 134.77 142.16 147.52 114.57C147.52 114.56 147.53 114.56 147.53 114.55C148.19 113.1 151.01 107.67 152.12 105.95C153.07 104.42 154.05 102.97 155.08 101.6C155.717 100.753 156.664 100.193 157.714 100.044C158.763 99.8952 159.829 100.169 160.677 100.805C161.525 101.44 162.085 102.387 162.236 103.436C162.387 104.485 162.115 105.551 161.48 106.4L161.48 106.4Z" fill="#E34E03"/>
<path d="M177 229.488C177 227.8 176.641 226.131 175.947 224.592C175.252 223.053 174.239 221.679 172.973 220.562C171.707 219.444 170.218 218.609 168.605 218.111C166.992 217.613 165.291 217.464 163.616 217.673L59.4304 230.696C56.5506 231.056 53.9014 232.456 51.9807 234.631C50.06 236.807 49 239.609 49 242.512C49 244.2 49.359 245.869 50.0533 247.408C50.7476 248.947 51.7613 250.321 53.027 251.438C54.2928 252.556 55.7816 253.391 57.3949 253.889C59.0082 254.387 60.7089 254.536 62.3842 254.327L166.57 241.304C169.449 240.944 172.099 239.544 174.019 237.369C175.94 235.193 177 232.391 177 229.488Z" fill="#0A4B69"/>
<path d="M176.73 208C176.211 210.413 174.955 212.605 173.134 214.271C171.314 215.938 169.019 216.996 166.57 217.3L62.38 230.33C61.8823 230.39 61.3814 230.42 60.88 230.42C58.2268 230.413 55.6519 229.52 53.5636 227.883C51.4754 226.246 49.9933 223.959 49.3525 221.385C48.7117 218.81 48.9488 216.095 50.0263 213.67C51.1037 211.246 52.9597 209.25 55.3001 208H176.73Z" fill="#0E638B"/>
<path d="M177 253.488C177 251.8 176.641 250.131 175.947 248.592C175.252 247.053 174.239 245.679 172.973 244.562C171.707 243.444 170.218 242.609 168.605 242.111C166.992 241.613 165.291 241.464 163.616 241.673L59.4304 254.696C56.5506 255.056 53.9014 256.456 51.9807 258.631C50.06 260.807 49 263.609 49 266.512C49 268.2 49.359 269.869 50.0533 271.408C50.7476 272.947 51.7613 274.321 53.027 275.438C54.2928 276.556 55.7816 277.391 57.3949 277.889C59.0082 278.387 60.7089 278.536 62.3842 278.327L166.57 265.304C169.449 264.944 172.099 263.544 174.019 261.369C175.94 259.193 177 256.391 177 253.488V253.488Z" fill="#0E638B"/>
<path d="M137 312H89L81 288H145L137 312Z" fill="#062938"/>
<path d="M97 312H129V320C129 322.122 128.157 324.157 126.657 325.657C125.157 327.157 123.122 328 121 328H105C102.878 328 100.843 327.157 99.3431 325.657C97.8428 324.157 97 322.122 97 320V312Z" fill="#B1CDB4"/>
<path d="M177 277.49C177 279.648 176.414 281.766 175.305 283.617C174.195 285.468 172.604 286.983 170.7 288H49.27C49.7886 285.587 51.0454 283.395 52.8659 281.729C54.6865 280.062 56.9806 279.004 59.4299 278.7L163.62 265.67C165.295 265.462 166.996 265.612 168.609 266.111C170.221 266.61 171.71 267.446 172.975 268.563C174.24 269.681 175.253 271.055 175.947 272.594C176.641 274.133 177 275.802 177 277.49V277.49Z" fill="#0A4B69"/>
<path d="M209 216C204.12 230.63 184.38 289.86 186.03 352H129C97 288 161 272 161 240C161 208 169 192 185 184C201 176 217 192 209 216Z" fill="#F5A971"/>
<path d="M46.4127 241.112C45.9179 241.112 45.4274 241.02 44.9664 240.84C34.1324 236.636 25.3682 233.409 25.0005 233.273L24.939 233.252C23.1532 232.649 21.3035 232.255 19.4268 232.078C18.9036 232.031 18.3945 231.883 17.9288 231.64C17.463 231.397 17.0496 231.065 16.7123 230.662C16.3749 230.26 16.1201 229.795 15.9625 229.294C15.8048 228.793 15.7474 228.265 15.7935 227.742C15.8396 227.219 15.9883 226.71 16.2312 226.244C16.474 225.778 16.8062 225.365 17.2088 225.028C17.6113 224.69 18.0764 224.435 18.5775 224.278C19.0785 224.12 19.6057 224.063 20.129 224.109C22.649 224.344 25.1329 224.872 27.5303 225.684L27.7081 225.746C28.1338 225.902 36.962 229.153 47.8609 233.382C48.7309 233.72 49.4554 234.351 49.9091 235.167C50.3627 235.983 50.517 236.931 50.3451 237.848C50.1732 238.766 49.6861 239.594 48.968 240.19C48.2498 240.786 47.3459 241.112 46.4127 241.112V241.112Z" fill="#E37066"/>
<path d="M25 233.273C1.00005 225.273 -6.99995 257.273 9.00005 265.273C25.0001 273.273 49.0001 288 73.0001 288C97.0001 288 97.0001 264 81.0001 256C65.0001 248 25 233.273 25 233.273Z" fill="#F5A971"/>
<path d="M78.0704 295.867C77.5126 295.866 76.961 295.749 76.4513 295.523C58.3761 287.508 34.0279 277.762 33.0001 277.351L32.9854 277.345C31.9815 277.005 31.1538 276.28 30.684 275.33C30.2142 274.38 30.1409 273.282 30.48 272.277C30.8192 271.273 31.5432 270.445 32.4929 269.974C33.4426 269.503 34.5403 269.428 35.545 269.766L35.9684 269.922C37.004 270.336 61.4854 280.136 79.6935 288.209C80.5319 288.581 81.217 289.23 81.6342 290.046C82.0514 290.863 82.1753 291.798 81.9852 292.696C81.795 293.593 81.3023 294.397 80.5896 294.975C79.877 295.552 78.9876 295.867 78.0704 295.867V295.867Z" fill="#E37066"/>
<path d="M33 277.351C9.00005 269.351 1.00005 304 17.0001 312C33.0001 320 65.0001 336 81.0001 336C97.0001 336 105 309.351 89.0001 301.351C73.0001 293.351 33 277.351 33 277.351Z" fill="#F5A971"/>
<path d="M33 312C17 312 9.00005 336 25 344C41 352 65 360 81 360C97 360 97 344 89 336C81 328 49 312 33 312Z" fill="#F5A971"/>
<path d="M98.6315 335.517C99.6415 334.343 100.552 333.088 101.355 331.765C101.905 330.857 102.071 329.769 101.818 328.738C101.565 327.708 100.913 326.821 100.006 326.271C99.0985 325.721 98.0099 325.555 96.9797 325.808C95.9494 326.061 95.0619 326.713 94.5123 327.62C91.3341 332.867 86.2828 336 81.0001 336C65.8555 336 35.8297 321.284 25.9625 316.449C25.4907 316.217 24.9778 316.08 24.4531 316.046C23.9284 316.013 23.4023 316.083 22.9047 316.253C22.4072 316.423 21.948 316.689 21.5535 317.036C21.1589 317.384 20.8368 317.806 20.6054 318.278C20.374 318.75 20.238 319.263 20.2051 319.788C20.1722 320.312 20.2431 320.838 20.4136 321.336C20.5842 321.833 20.8512 322.292 21.1992 322.686C21.5472 323.08 21.9695 323.402 22.442 323.632C40.2823 332.376 65.7628 344 81.0001 344C85.0168 343.984 88.9539 342.879 92.3924 340.802C94.3892 344.903 94.8232 349.601 93.3472 353.165C91.5215 357.573 87.1363 360 81.0001 360C72.1832 360 60.0201 357.511 46.7515 352.993C45.7475 352.652 44.6491 352.723 43.6978 353.192C42.7465 353.66 42.0201 354.487 41.6783 355.491C41.3365 356.494 41.4072 357.593 41.8748 358.545C42.3425 359.496 43.1689 360.223 44.1724 360.566C54.1314 363.957 68.6051 368 81.0001 368C90.3057 368 97.6841 363.599 100.738 356.227C103.327 349.977 102.439 342.028 98.6315 335.517V335.517Z" fill="#E37066"/>
<path d="M125.425 357.79C124.682 357.79 123.953 357.584 123.321 357.193C122.688 356.802 122.177 356.243 121.845 355.578C118.151 348.374 115.373 340.736 113.576 332.842C113.465 332.329 113.457 331.798 113.551 331.282C113.646 330.765 113.841 330.272 114.126 329.83C114.411 329.389 114.78 329.008 115.212 328.71C115.644 328.411 116.131 328.2 116.645 328.09C117.158 327.979 117.688 327.971 118.205 328.065C118.722 328.16 119.215 328.355 119.656 328.64C120.098 328.925 120.479 329.294 120.777 329.726C121.076 330.158 121.287 330.645 121.397 331.159C123.052 338.396 125.607 345.397 129 352C129.305 352.61 129.448 353.287 129.418 353.968C129.387 354.649 129.183 355.311 128.825 355.891C128.467 356.47 127.967 356.949 127.372 357.282C126.777 357.614 126.107 357.789 125.425 357.79V357.79Z" fill="#E37066"/>
<path d="M16.2344 200.031C22.375 190.75 34 184 49 184C89 184 89 224 49 224H33L16.2344 200.031Z" fill="#F5A971"/>
<path d="M45.9751 228H41C39.9391 228 38.9217 227.579 38.1716 226.828C37.4214 226.078 37 225.061 37 224C37 222.939 37.4214 221.922 38.1716 221.172C38.9217 220.421 39.9391 220 41 220H45.9751C47.036 220 48.0534 220.421 48.8035 221.172C49.5537 221.922 49.9751 222.939 49.9751 224C49.9751 225.061 49.5537 226.078 48.8035 226.828C48.0534 227.579 47.036 228 45.9751 228Z" fill="#E37066"/>
</svg>
